<mxfile host="app.diagrams.net" modified="2024-03-17T13:30:22.691Z" agent="Mozilla/5.0 (Windows NT 10.0; Win64; x64; rv:123.0) Gecko/20100101 Firefox/123.0" etag="qGXeeE3GMzAPwnL9D0tI" version="24.0.7" type="github">
  <diagram name="Page-1" id="2c0d36ab-eaac-3732-788b-9136903baeff">
    <mxGraphModel dx="1434" dy="718" grid="1" gridSize="10" guides="1" tooltips="1" connect="1" arrows="1" fold="1" page="1" pageScale="1.5" pageWidth="1169" pageHeight="827" background="none" math="0" shadow="0">
      <root>
        <mxCell id="0" />
        <mxCell id="1" parent="0" />
        <mxCell id="123" value="" style="fillColor=#A8DADC;strokeColor=none;opacity=30;labelBackgroundColor=none;fontColor=#1D3557;" parent="1" vertex="1">
          <mxGeometry x="747" y="175.50000000000003" width="210" height="99.99999999999994" as="geometry" />
        </mxCell>
        <mxCell id="j4UtgI-RfU6Pxci4Zflh-125" value="Possui" style="edgeStyle=orthogonalEdgeStyle;rounded=0;orthogonalLoop=1;jettySize=auto;html=1;exitX=0.75;exitY=1;exitDx=0;exitDy=0;entryX=0.5;entryY=0;entryDx=0;entryDy=0;strokeColor=#457B9D;fontColor=#1D3557;fillColor=#A8DADC;" edge="1" parent="1" source="2" target="j4UtgI-RfU6Pxci4Zflh-124">
          <mxGeometry relative="1" as="geometry" />
        </mxCell>
        <mxCell id="2" value="Cupcakedias" style="rounded=1;fillColor=#A8DADC;strokeColor=none;fontColor=#1D3557;fontStyle=1;fontFamily=Tahoma;fontSize=14;labelBackgroundColor=none;" parent="1" vertex="1">
          <mxGeometry x="757" y="185.5" width="190" height="80" as="geometry" />
        </mxCell>
        <mxCell id="j4UtgI-RfU6Pxci4Zflh-141" value="Possuem" style="edgeStyle=orthogonalEdgeStyle;rounded=0;orthogonalLoop=1;jettySize=auto;html=1;exitX=0.5;exitY=1;exitDx=0;exitDy=0;strokeColor=#457B9D;fontColor=#1D3557;fillColor=#A8DADC;" edge="1" parent="1" source="j4UtgI-RfU6Pxci4Zflh-123" target="j4UtgI-RfU6Pxci4Zflh-136">
          <mxGeometry relative="1" as="geometry" />
        </mxCell>
        <mxCell id="j4UtgI-RfU6Pxci4Zflh-123" value="Cupcake" style="rounded=1;fillColor=#A8DADC;strokeColor=none;fontColor=#1D3557;fontStyle=1;fontFamily=Tahoma;fontSize=14;labelBackgroundColor=none;" vertex="1" parent="1">
          <mxGeometry x="420" y="330" width="190" height="80" as="geometry" />
        </mxCell>
        <mxCell id="j4UtgI-RfU6Pxci4Zflh-131" value="Divididos em" style="edgeStyle=orthogonalEdgeStyle;rounded=0;orthogonalLoop=1;jettySize=auto;html=1;strokeColor=#457B9D;fontColor=#1D3557;fillColor=#A8DADC;" edge="1" parent="1" source="j4UtgI-RfU6Pxci4Zflh-124" target="j4UtgI-RfU6Pxci4Zflh-128">
          <mxGeometry relative="1" as="geometry" />
        </mxCell>
        <mxCell id="j4UtgI-RfU6Pxci4Zflh-132" value="Divididos em" style="edgeStyle=orthogonalEdgeStyle;rounded=0;orthogonalLoop=1;jettySize=auto;html=1;entryX=0.75;entryY=0;entryDx=0;entryDy=0;strokeColor=#457B9D;fontColor=#1D3557;fillColor=#A8DADC;" edge="1" parent="1" source="j4UtgI-RfU6Pxci4Zflh-124" target="j4UtgI-RfU6Pxci4Zflh-130">
          <mxGeometry relative="1" as="geometry" />
        </mxCell>
        <mxCell id="j4UtgI-RfU6Pxci4Zflh-134" style="edgeStyle=orthogonalEdgeStyle;rounded=0;orthogonalLoop=1;jettySize=auto;html=1;exitX=1;exitY=0.5;exitDx=0;exitDy=0;entryX=0.5;entryY=0;entryDx=0;entryDy=0;strokeColor=#457B9D;fontColor=#1D3557;fillColor=#A8DADC;" edge="1" parent="1" source="j4UtgI-RfU6Pxci4Zflh-124" target="j4UtgI-RfU6Pxci4Zflh-129">
          <mxGeometry relative="1" as="geometry" />
        </mxCell>
        <mxCell id="j4UtgI-RfU6Pxci4Zflh-135" value="Divididos em" style="edgeLabel;html=1;align=center;verticalAlign=middle;resizable=0;points=[];strokeColor=#457B9D;fontColor=#1D3557;fillColor=#A8DADC;" vertex="1" connectable="0" parent="j4UtgI-RfU6Pxci4Zflh-134">
          <mxGeometry x="0.5614" y="-2" relative="1" as="geometry">
            <mxPoint as="offset" />
          </mxGeometry>
        </mxCell>
        <mxCell id="j4UtgI-RfU6Pxci4Zflh-124" value="Usuário" style="rounded=1;fillColor=#A8DADC;strokeColor=none;fontColor=#1D3557;fontStyle=1;fontFamily=Tahoma;fontSize=14;labelBackgroundColor=none;" vertex="1" parent="1">
          <mxGeometry x="1077" y="340" width="190" height="80" as="geometry" />
        </mxCell>
        <mxCell id="j4UtgI-RfU6Pxci4Zflh-126" value="Possui" style="edgeStyle=orthogonalEdgeStyle;rounded=0;orthogonalLoop=1;jettySize=auto;html=1;exitX=0.25;exitY=1;exitDx=0;exitDy=0;entryX=0.555;entryY=0.032;entryDx=0;entryDy=0;entryPerimeter=0;strokeColor=#457B9D;fontColor=#1D3557;fillColor=#A8DADC;" edge="1" parent="1" source="2" target="j4UtgI-RfU6Pxci4Zflh-123">
          <mxGeometry relative="1" as="geometry" />
        </mxCell>
        <mxCell id="j4UtgI-RfU6Pxci4Zflh-140" value="Gerenciam" style="edgeStyle=orthogonalEdgeStyle;rounded=0;orthogonalLoop=1;jettySize=auto;html=1;exitX=0.25;exitY=1;exitDx=0;exitDy=0;entryX=0.75;entryY=1;entryDx=0;entryDy=0;strokeColor=#457B9D;fontColor=#1D3557;fillColor=#A8DADC;" edge="1" parent="1" source="j4UtgI-RfU6Pxci4Zflh-128" target="j4UtgI-RfU6Pxci4Zflh-136">
          <mxGeometry relative="1" as="geometry" />
        </mxCell>
        <mxCell id="j4UtgI-RfU6Pxci4Zflh-128" value="Gerente de Produção" style="rounded=1;fillColor=#A8DADC;strokeColor=none;fontColor=#1D3557;fontStyle=1;fontFamily=Tahoma;fontSize=14;labelBackgroundColor=none;" vertex="1" parent="1">
          <mxGeometry x="1080" y="500" width="190" height="80" as="geometry" />
        </mxCell>
        <mxCell id="j4UtgI-RfU6Pxci4Zflh-143" value="Verificam" style="edgeStyle=orthogonalEdgeStyle;rounded=0;orthogonalLoop=1;jettySize=auto;html=1;strokeColor=#457B9D;fontColor=#1D3557;fillColor=#A8DADC;" edge="1" parent="1" source="j4UtgI-RfU6Pxci4Zflh-129" target="j4UtgI-RfU6Pxci4Zflh-142">
          <mxGeometry relative="1" as="geometry" />
        </mxCell>
        <mxCell id="j4UtgI-RfU6Pxci4Zflh-129" value="Gerente Financeiro" style="rounded=1;fillColor=#A8DADC;strokeColor=none;fontColor=#1D3557;fontStyle=1;fontFamily=Tahoma;fontSize=14;labelBackgroundColor=none;" vertex="1" parent="1">
          <mxGeometry x="1280" y="500" width="190" height="80" as="geometry" />
        </mxCell>
        <mxCell id="j4UtgI-RfU6Pxci4Zflh-145" value="Gerenciam" style="edgeStyle=orthogonalEdgeStyle;rounded=0;orthogonalLoop=1;jettySize=auto;html=1;strokeColor=#457B9D;fontColor=#1D3557;fillColor=#A8DADC;" edge="1" parent="1" source="j4UtgI-RfU6Pxci4Zflh-130" target="j4UtgI-RfU6Pxci4Zflh-144">
          <mxGeometry relative="1" as="geometry" />
        </mxCell>
        <mxCell id="j4UtgI-RfU6Pxci4Zflh-130" value="Gerente de Marketing" style="rounded=1;fillColor=#A8DADC;strokeColor=none;fontColor=#1D3557;fontStyle=1;fontFamily=Tahoma;fontSize=14;labelBackgroundColor=none;" vertex="1" parent="1">
          <mxGeometry x="877" y="500" width="190" height="80" as="geometry" />
        </mxCell>
        <mxCell id="j4UtgI-RfU6Pxci4Zflh-136" value="Ingredientes" style="rounded=1;fillColor=#A8DADC;strokeColor=none;fontColor=#1D3557;fontStyle=1;fontFamily=Tahoma;fontSize=14;labelBackgroundColor=none;" vertex="1" parent="1">
          <mxGeometry x="420" y="470" width="190" height="80" as="geometry" />
        </mxCell>
        <mxCell id="j4UtgI-RfU6Pxci4Zflh-139" value="Possui" style="edgeStyle=orthogonalEdgeStyle;rounded=0;orthogonalLoop=1;jettySize=auto;html=1;strokeColor=#457B9D;fontColor=#1D3557;fillColor=#A8DADC;" edge="1" parent="1" source="j4UtgI-RfU6Pxci4Zflh-137" target="j4UtgI-RfU6Pxci4Zflh-123">
          <mxGeometry relative="1" as="geometry" />
        </mxCell>
        <mxCell id="j4UtgI-RfU6Pxci4Zflh-137" value="Pedido" style="rounded=1;fillColor=#A8DADC;strokeColor=none;fontColor=#1D3557;fontStyle=1;fontFamily=Tahoma;fontSize=14;labelBackgroundColor=none;" vertex="1" parent="1">
          <mxGeometry x="170" y="330" width="190" height="80" as="geometry" />
        </mxCell>
        <mxCell id="j4UtgI-RfU6Pxci4Zflh-142" value="Relatórios" style="rounded=1;fillColor=#A8DADC;strokeColor=none;fontColor=#1D3557;fontStyle=1;fontFamily=Tahoma;fontSize=14;labelBackgroundColor=none;" vertex="1" parent="1">
          <mxGeometry x="1280" y="630" width="190" height="80" as="geometry" />
        </mxCell>
        <mxCell id="j4UtgI-RfU6Pxci4Zflh-144" value="Promoção" style="rounded=1;fillColor=#A8DADC;strokeColor=none;fontColor=#1D3557;fontStyle=1;fontFamily=Tahoma;fontSize=14;labelBackgroundColor=none;" vertex="1" parent="1">
          <mxGeometry x="877" y="660" width="190" height="80" as="geometry" />
        </mxCell>
      </root>
    </mxGraphModel>
  </diagram>
</mxfile>
